<mxfile host="65bd71144e">
    <diagram id="Apbu9vUf48-1Uv2mZhd0" name="Page-1">
        <mxGraphModel dx="847" dy="602" grid="1" gridSize="10" guides="1" tooltips="1" connect="1" arrows="1" fold="1" page="1" pageScale="1" pageWidth="3300" pageHeight="4681" math="0" shadow="0">
            <root>
                <mxCell id="0"/>
                <mxCell id="1" parent="0"/>
                <mxCell id="26" style="edgeStyle=orthogonalEdgeStyle;rounded=0;orthogonalLoop=1;jettySize=auto;html=1;entryX=0;entryY=0;entryDx=0;entryDy=37.5;entryPerimeter=0;" parent="1" source="2" target="24" edge="1">
                    <mxGeometry relative="1" as="geometry"/>
                </mxCell>
                <mxCell id="136" style="edgeStyle=orthogonalEdgeStyle;rounded=0;orthogonalLoop=1;jettySize=auto;html=1;entryX=0;entryY=0;entryDx=0;entryDy=37.5;entryPerimeter=0;" edge="1" parent="1" source="2" target="135">
                    <mxGeometry relative="1" as="geometry"/>
                </mxCell>
                <mxCell id="2" value="BARSKY" style="shape=hexagon;perimeter=hexagonPerimeter2;whiteSpace=wrap;html=1;fixedSize=1;" parent="1" vertex="1">
                    <mxGeometry x="260" y="250" width="120" height="80" as="geometry"/>
                </mxCell>
                <mxCell id="22" style="edgeStyle=orthogonalEdgeStyle;rounded=0;orthogonalLoop=1;jettySize=auto;html=1;entryX=0;entryY=0.5;entryDx=0;entryDy=0;" parent="1" source="4" target="2" edge="1">
                    <mxGeometry relative="1" as="geometry"/>
                </mxCell>
                <mxCell id="4" value="API" style="rounded=0;whiteSpace=wrap;html=1;" parent="1" vertex="1">
                    <mxGeometry x="70" y="220" width="120" height="60" as="geometry"/>
                </mxCell>
                <mxCell id="23" style="edgeStyle=orthogonalEdgeStyle;rounded=0;orthogonalLoop=1;jettySize=auto;html=1;entryX=0.5;entryY=1;entryDx=0;entryDy=0;" parent="1" source="5" target="2" edge="1">
                    <mxGeometry relative="1" as="geometry"/>
                </mxCell>
                <mxCell id="5" value="CLI" style="rounded=0;whiteSpace=wrap;html=1;" parent="1" vertex="1">
                    <mxGeometry x="260" y="390" width="120" height="60" as="geometry"/>
                </mxCell>
                <mxCell id="11" style="edgeStyle=orthogonalEdgeStyle;rounded=0;orthogonalLoop=1;jettySize=auto;html=1;exitX=0.5;exitY=1;exitDx=0;exitDy=0;entryX=0.5;entryY=0;entryDx=0;entryDy=0;" parent="1" source="9" target="2" edge="1">
                    <mxGeometry relative="1" as="geometry"/>
                </mxCell>
                <mxCell id="9" value="ScrapperService" style="rounded=0;whiteSpace=wrap;html=1;" parent="1" vertex="1">
                    <mxGeometry x="260" y="160" width="120" height="60" as="geometry"/>
                </mxCell>
                <mxCell id="17" value="Swagger" style="shape=card;whiteSpace=wrap;html=1;" parent="1" vertex="1">
                    <mxGeometry x="40" y="180" width="56" height="70" as="geometry"/>
                </mxCell>
                <mxCell id="18" value="Help&lt;br&gt;cmd" style="shape=card;whiteSpace=wrap;html=1;" parent="1" vertex="1">
                    <mxGeometry x="230" y="360" width="56" height="70" as="geometry"/>
                </mxCell>
                <mxCell id="21" style="edgeStyle=orthogonalEdgeStyle;rounded=0;orthogonalLoop=1;jettySize=auto;html=1;entryX=0.5;entryY=0;entryDx=0;entryDy=0;" parent="1" source="19" target="9" edge="1">
                    <mxGeometry relative="1" as="geometry"/>
                </mxCell>
                <mxCell id="19" value="&lt;meta charset=&quot;utf-8&quot;&gt;&lt;span style=&quot;color: rgb(240, 240, 240); font-family: helvetica; font-size: 12px; font-style: normal; font-weight: 400; letter-spacing: normal; text-align: center; text-indent: 0px; text-transform: none; word-spacing: 0px; background-color: rgb(42, 42, 42); display: inline; float: none;&quot;&gt;DealerRater.com&lt;/span&gt;" style="ellipse;shape=cloud;whiteSpace=wrap;html=1;" parent="1" vertex="1">
                    <mxGeometry x="225" y="30" width="190" height="80" as="geometry"/>
                </mxCell>
                <mxCell id="24" value="DB" style="shape=cylinder3;whiteSpace=wrap;html=1;boundedLbl=1;backgroundOutline=1;size=15;" parent="1" vertex="1">
                    <mxGeometry x="502.5" y="310" width="45" height="60" as="geometry"/>
                </mxCell>
                <mxCell id="28" style="edgeStyle=orthogonalEdgeStyle;rounded=0;orthogonalLoop=1;jettySize=auto;html=1;entryX=1;entryY=0.25;entryDx=0;entryDy=0;" parent="1" source="27" target="2" edge="1">
                    <mxGeometry relative="1" as="geometry">
                        <Array as="points">
                            <mxPoint x="460" y="273"/>
                        </Array>
                    </mxGeometry>
                </mxCell>
                <mxCell id="27" value="LearningService" style="rounded=0;whiteSpace=wrap;html=1;" parent="1" vertex="1">
                    <mxGeometry x="400" y="160" width="120" height="60" as="geometry"/>
                </mxCell>
                <mxCell id="30" style="edgeStyle=orthogonalEdgeStyle;rounded=0;orthogonalLoop=1;jettySize=auto;html=1;entryX=0.5;entryY=0;entryDx=0;entryDy=0;" parent="1" source="29" target="27" edge="1">
                    <mxGeometry relative="1" as="geometry"/>
                </mxCell>
                <mxCell id="29" value="&lt;span style=&quot;color: rgb(240 , 240 , 240) ; font-family: &amp;#34;helvetica&amp;#34; ; font-size: 12px ; font-style: normal ; font-weight: 400 ; letter-spacing: normal ; text-align: center ; text-indent: 0px ; text-transform: none ; word-spacing: 0px ; background-color: rgb(42 , 42 , 42) ; display: inline ; float: none&quot;&gt;NLU and NLTK&lt;/span&gt;" style="ellipse;shape=cloud;whiteSpace=wrap;html=1;" parent="1" vertex="1">
                    <mxGeometry x="430" y="30" width="190" height="80" as="geometry"/>
                </mxCell>
                <mxCell id="38" value="" style="endArrow=none;dashed=1;html=1;" edge="1" parent="1">
                    <mxGeometry width="50" height="50" relative="1" as="geometry">
                        <mxPoint x="240" y="880" as="sourcePoint"/>
                        <mxPoint x="720" y="880" as="targetPoint"/>
                    </mxGeometry>
                </mxCell>
                <mxCell id="39" value="" style="endArrow=none;dashed=1;html=1;" edge="1" parent="1">
                    <mxGeometry width="50" height="50" relative="1" as="geometry">
                        <mxPoint x="240" y="1360" as="sourcePoint"/>
                        <mxPoint x="720" y="1360" as="targetPoint"/>
                    </mxGeometry>
                </mxCell>
                <mxCell id="40" value="Brasky-Scrapper - v0.0.1" style="text;html=1;strokeColor=none;fillColor=none;align=center;verticalAlign=middle;whiteSpace=wrap;rounded=0;" vertex="1" parent="1">
                    <mxGeometry x="240" y="850" width="480" height="26.67" as="geometry"/>
                </mxCell>
                <mxCell id="41" value="&lt;h1 id=&quot;m_1860147635498814428m_-9216740004175778719gmail-m_1142609070660252988gmail-m_6044459364534996954gmail-m_-8863663927819648097gmail-m_8758470800842670306gmail-m_-8861804234236570411backend-coding-assessment&quot; style=&quot;font-family: &amp;#34;arial&amp;#34; , &amp;#34;helvetica&amp;#34; , sans-serif ; margin: 1.3em 0px 1em ; padding: 0px ; font-size: 1.6em ; border-bottom: 1px solid rgb(221 , 221 , 221)&quot;&gt;&lt;font color=&quot;#ffffff&quot;&gt;Backend Coding Assessment&lt;/font&gt;&lt;/h1&gt;&lt;h1&gt;&lt;font color=&quot;#ffffff&quot;&gt;&lt;span style=&quot;font-family: &amp;#34;arial&amp;#34; , &amp;#34;helvetica&amp;#34; , sans-serif ; font-size: small ; font-weight: normal&quot;&gt;We really look for three things when it comes to the coding challenge:&lt;/span&gt;&lt;br&gt;&lt;/font&gt;&lt;/h1&gt;&lt;ul style=&quot;font-family: &amp;#34;arial&amp;#34; , &amp;#34;helvetica&amp;#34; , sans-serif ; font-size: small ; margin: 1.2em 0px ; padding-left: 2em&quot;&gt;&lt;li style=&quot;margin: 0.5em 0px&quot;&gt;&lt;font color=&quot;#ffffff&quot;&gt;1 You follow good engineering practices&lt;/font&gt;&lt;/li&gt;&lt;li style=&quot;margin: 0.5em 0px&quot;&gt;&lt;font color=&quot;#ffffff&quot;&gt;2 Your code is well tested and documented&lt;/font&gt;&lt;/li&gt;&lt;li style=&quot;margin: 0.5em 0px&quot;&gt;&lt;font color=&quot;#ffffff&quot;&gt;3 You show thoughtful code organization&lt;/font&gt;&lt;/li&gt;&lt;/ul&gt;&lt;p style=&quot;font-family: &amp;#34;arial&amp;#34; , &amp;#34;helvetica&amp;#34; , sans-serif ; font-size: small ; margin: 0px 0px 1.2em&quot;&gt;&lt;font color=&quot;#ffffff&quot;&gt;You can use any language you choose just be sure you include execution instructions, etc. Let me know if you have any questions.&lt;/font&gt;&lt;/p&gt;&lt;h5 id=&quot;m_1860147635498814428m_-9216740004175778719gmail-m_1142609070660252988gmail-m_6044459364534996954gmail-m_-8863663927819648097gmail-m_8758470800842670306gmail-m_-8861804234236570411coding-challenge-a-dealer-for-the-people-&quot; style=&quot;font-family: &amp;#34;arial&amp;#34; , &amp;#34;helvetica&amp;#34; , sans-serif ; margin: 1.3em 0px 1em ; padding: 0px ; font-size: 1em&quot;&gt;&lt;font color=&quot;#ffffff&quot;&gt;Coding Challenge: “A Dealer For the People”&lt;/font&gt;&lt;/h5&gt;&lt;p style=&quot;font-family: &amp;#34;arial&amp;#34; , &amp;#34;helvetica&amp;#34; , sans-serif ; font-size: small ; margin: 0px 0px 1.2em&quot;&gt;&lt;font color=&quot;#ffffff&quot;&gt;The KGB has noticed a resurgence of overly excited reviews for a McKaig Chevrolet Buick, a dealership they have planted in the United States. In order to avoid attracting unwanted attention, you’ve been enlisted to scrape reviews for this dealership from DealerRater.com and uncover the top three worst offenders of these overly positive endorsements.&lt;/font&gt;&lt;/p&gt;&lt;p style=&quot;font-family: &amp;#34;arial&amp;#34; , &amp;#34;helvetica&amp;#34; , sans-serif ; font-size: small ; margin: 0px 0px 1.2em&quot;&gt;&lt;font color=&quot;#ffffff&quot;&gt;Your mission, should you choose to accept it, is to write a tool that:&lt;/font&gt;&lt;/p&gt;&lt;ul style=&quot;font-family: &amp;#34;arial&amp;#34; , &amp;#34;helvetica&amp;#34; , sans-serif ; font-size: small ; margin: 1.2em 0px ; padding-left: 2em&quot;&gt;&lt;li style=&quot;margin: 0.5em 0px&quot;&gt;&lt;font color=&quot;#ffffff&quot;&gt;1 scrapes the first five pages of reviews&lt;/font&gt;&lt;/li&gt;&lt;li style=&quot;margin: 0.5em 0px&quot;&gt;&lt;font color=&quot;#ffffff&quot;&gt;2 identifies the top three most “overly positive” endorsements (using criteria of your choosing, documented in the README)&lt;/font&gt;&lt;/li&gt;&lt;li style=&quot;margin: 0.5em 0px&quot;&gt;&lt;font color=&quot;#ffffff&quot;&gt;3 outputs these three reviews to the console, in order of severity&lt;br&gt;&lt;/font&gt;&lt;/li&gt;&lt;/ul&gt;" style="text;html=1;strokeColor=none;fillColor=none;spacing=5;spacingTop=-20;whiteSpace=wrap;overflow=hidden;rounded=0;" vertex="1" parent="1">
                    <mxGeometry x="760" y="840" width="400" height="560" as="geometry"/>
                </mxCell>
                <mxCell id="42" value="CLI" style="rhombus;whiteSpace=wrap;html=1;" vertex="1" parent="1">
                    <mxGeometry x="240" y="920" width="80" height="80" as="geometry"/>
                </mxCell>
                <mxCell id="43" value="API" style="rhombus;whiteSpace=wrap;html=1;" vertex="1" parent="1">
                    <mxGeometry x="240" y="1250" width="80" height="80" as="geometry"/>
                </mxCell>
                <mxCell id="44" value="Domain" style="swimlane;" vertex="1" parent="1">
                    <mxGeometry x="310" y="990" width="340" height="260" as="geometry"/>
                </mxCell>
                <mxCell id="47" value="Adapters" style="rounded=0;whiteSpace=wrap;html=1;" vertex="1" parent="44">
                    <mxGeometry x="10" y="37" width="320" height="60" as="geometry"/>
                </mxCell>
                <mxCell id="48" value="Builders" style="rounded=0;whiteSpace=wrap;html=1;" vertex="1" parent="44">
                    <mxGeometry x="10" y="115" width="320" height="60" as="geometry"/>
                </mxCell>
                <mxCell id="49" value="Models" style="rounded=0;whiteSpace=wrap;html=1;" vertex="1" parent="44">
                    <mxGeometry x="10" y="190" width="320" height="60" as="geometry"/>
                </mxCell>
                <mxCell id="45" value="Services" style="rhombus;whiteSpace=wrap;html=1;" vertex="1" parent="1">
                    <mxGeometry x="640" y="920" width="80" height="80" as="geometry"/>
                </mxCell>
                <mxCell id="46" value="Analyzer" style="rhombus;whiteSpace=wrap;html=1;" vertex="1" parent="1">
                    <mxGeometry x="640" y="1250" width="80" height="80" as="geometry"/>
                </mxCell>
                <mxCell id="50" value="CLI" style="rounded=0;whiteSpace=wrap;html=1;" vertex="1" parent="1">
                    <mxGeometry x="240" y="1590" width="120" height="60" as="geometry"/>
                </mxCell>
                <mxCell id="51" value="DealerRaterService" style="rounded=0;whiteSpace=wrap;html=1;" vertex="1" parent="1">
                    <mxGeometry x="400" y="1590" width="120" height="60" as="geometry"/>
                </mxCell>
                <mxCell id="53" value="AdapterBuickReview" style="rounded=0;whiteSpace=wrap;html=1;" vertex="1" parent="1">
                    <mxGeometry x="560" y="1590" width="120" height="60" as="geometry"/>
                </mxCell>
                <mxCell id="55" value="ScoreAnalyzer" style="rounded=0;whiteSpace=wrap;html=1;" vertex="1" parent="1">
                    <mxGeometry x="880" y="1590" width="120" height="60" as="geometry"/>
                </mxCell>
                <mxCell id="59" style="edgeStyle=orthogonalEdgeStyle;rounded=0;orthogonalLoop=1;jettySize=auto;html=1;" edge="1" parent="1" source="56" target="51">
                    <mxGeometry relative="1" as="geometry"/>
                </mxCell>
                <mxCell id="56" value="Services" style="shape=process;whiteSpace=wrap;html=1;backgroundOutline=1;" vertex="1" parent="1">
                    <mxGeometry x="400" y="1500" width="120" height="60" as="geometry"/>
                </mxCell>
                <mxCell id="60" style="edgeStyle=orthogonalEdgeStyle;rounded=0;orthogonalLoop=1;jettySize=auto;html=1;entryX=0.5;entryY=0;entryDx=0;entryDy=0;" edge="1" parent="1" source="57" target="53">
                    <mxGeometry relative="1" as="geometry"/>
                </mxCell>
                <mxCell id="57" value="Adapters" style="shape=process;whiteSpace=wrap;html=1;backgroundOutline=1;" vertex="1" parent="1">
                    <mxGeometry x="560" y="1500" width="120" height="60" as="geometry"/>
                </mxCell>
                <mxCell id="61" style="edgeStyle=orthogonalEdgeStyle;rounded=0;orthogonalLoop=1;jettySize=auto;html=1;" edge="1" parent="1" source="58" target="55">
                    <mxGeometry relative="1" as="geometry"/>
                </mxCell>
                <mxCell id="58" value="Analyzer" style="shape=process;whiteSpace=wrap;html=1;backgroundOutline=1;" vertex="1" parent="1">
                    <mxGeometry x="880" y="1500" width="120" height="60" as="geometry"/>
                </mxCell>
                <mxCell id="72" value="make suspicious" style="edgeStyle=orthogonalEdgeStyle;rounded=0;orthogonalLoop=1;jettySize=auto;html=1;" edge="1" parent="1" source="62">
                    <mxGeometry relative="1" as="geometry">
                        <mxPoint x="300" y="1720" as="targetPoint"/>
                    </mxGeometry>
                </mxCell>
                <mxCell id="62" value="Stakeholder" style="shape=umlActor;verticalLabelPosition=bottom;verticalAlign=top;html=1;outlineConnect=0;" vertex="1" parent="1">
                    <mxGeometry x="80" y="1690" width="30" height="60" as="geometry"/>
                </mxCell>
                <mxCell id="63" value="" style="endArrow=none;dashed=1;html=1;entryX=0.5;entryY=1;entryDx=0;entryDy=0;" edge="1" parent="1" target="50">
                    <mxGeometry width="50" height="50" relative="1" as="geometry">
                        <mxPoint x="300" y="2240" as="sourcePoint"/>
                        <mxPoint x="390" y="1740" as="targetPoint"/>
                    </mxGeometry>
                </mxCell>
                <mxCell id="64" value="" style="endArrow=none;dashed=1;html=1;entryX=0.5;entryY=1;entryDx=0;entryDy=0;" edge="1" parent="1">
                    <mxGeometry width="50" height="50" relative="1" as="geometry">
                        <mxPoint x="460" y="2240" as="sourcePoint"/>
                        <mxPoint x="460" y="1650" as="targetPoint"/>
                    </mxGeometry>
                </mxCell>
                <mxCell id="65" value="" style="endArrow=none;dashed=1;html=1;entryX=0.5;entryY=1;entryDx=0;entryDy=0;" edge="1" parent="1">
                    <mxGeometry width="50" height="50" relative="1" as="geometry">
                        <mxPoint x="620" y="2240" as="sourcePoint"/>
                        <mxPoint x="619.5" y="1650" as="targetPoint"/>
                    </mxGeometry>
                </mxCell>
                <mxCell id="66" value="" style="endArrow=none;dashed=1;html=1;entryX=0.5;entryY=1;entryDx=0;entryDy=0;" edge="1" parent="1">
                    <mxGeometry width="50" height="50" relative="1" as="geometry">
                        <mxPoint x="940" y="2240" as="sourcePoint"/>
                        <mxPoint x="939.5" y="1650" as="targetPoint"/>
                    </mxGeometry>
                </mxCell>
                <mxCell id="67" value="initializes a service" style="endArrow=classic;html=1;" edge="1" parent="1">
                    <mxGeometry width="50" height="50" relative="1" as="geometry">
                        <mxPoint x="300" y="1700" as="sourcePoint"/>
                        <mxPoint x="460" y="1700" as="targetPoint"/>
                    </mxGeometry>
                </mxCell>
                <mxCell id="68" value="initializes a adapter with previous service" style="endArrow=classic;html=1;" edge="1" parent="1">
                    <mxGeometry width="50" height="50" relative="1" as="geometry">
                        <mxPoint x="300" y="1730" as="sourcePoint"/>
                        <mxPoint x="620" y="1730" as="targetPoint"/>
                    </mxGeometry>
                </mxCell>
                <mxCell id="69" value="requests the most suspicious reviews" style="endArrow=classic;html=1;" edge="1" parent="1">
                    <mxGeometry width="50" height="50" relative="1" as="geometry">
                        <mxPoint x="300" y="1761" as="sourcePoint"/>
                        <mxPoint x="620" y="1761" as="targetPoint"/>
                    </mxGeometry>
                </mxCell>
                <mxCell id="73" value="&lt;font style=&quot;font-size: 19px&quot;&gt;Top three most suspicious reviews from DealerRater.com for McKaig Chevrolet Buick&lt;br&gt;Sequence Diagram&lt;/font&gt;" style="text;html=1;strokeColor=none;fillColor=none;align=center;verticalAlign=middle;whiteSpace=wrap;rounded=0;" vertex="1" parent="1">
                    <mxGeometry x="50" y="1450" width="950" height="20" as="geometry"/>
                </mxCell>
                <mxCell id="75" value="scrapes reviews for page X" style="endArrow=classic;html=1;" edge="1" parent="1">
                    <mxGeometry width="50" height="50" relative="1" as="geometry">
                        <mxPoint x="620" y="1826" as="sourcePoint"/>
                        <mxPoint x="460" y="1826" as="targetPoint"/>
                    </mxGeometry>
                </mxCell>
                <mxCell id="76" value="loop over page qty" style="swimlane;startSize=0;dashed=1;fillColor=none;strokeColor=#808080;" vertex="1" parent="1">
                    <mxGeometry x="560" y="1791" width="120" height="259" as="geometry"/>
                </mxCell>
                <mxCell id="79" style="edgeStyle=orthogonalEdgeStyle;rounded=0;orthogonalLoop=1;jettySize=auto;html=1;entryX=0.5;entryY=0;entryDx=0;entryDy=0;" edge="1" parent="1" source="77" target="78">
                    <mxGeometry relative="1" as="geometry"/>
                </mxCell>
                <mxCell id="77" value="Builders" style="shape=process;whiteSpace=wrap;html=1;backgroundOutline=1;" vertex="1" parent="1">
                    <mxGeometry x="720" y="1500" width="120" height="60" as="geometry"/>
                </mxCell>
                <mxCell id="78" value="BuilderBuick" style="rounded=0;whiteSpace=wrap;html=1;" vertex="1" parent="1">
                    <mxGeometry x="720" y="1590" width="120" height="60" as="geometry"/>
                </mxCell>
                <mxCell id="80" value="" style="endArrow=none;dashed=1;html=1;entryX=0.5;entryY=1;entryDx=0;entryDy=0;" edge="1" parent="1">
                    <mxGeometry width="50" height="50" relative="1" as="geometry">
                        <mxPoint x="790" y="2240" as="sourcePoint"/>
                        <mxPoint x="779.5" y="1650" as="targetPoint"/>
                    </mxGeometry>
                </mxCell>
                <mxCell id="81" value="" style="endArrow=classic;html=1;" edge="1" parent="1">
                    <mxGeometry width="50" height="50" relative="1" as="geometry">
                        <mxPoint x="620" y="1850" as="sourcePoint"/>
                        <mxPoint x="780" y="1850" as="targetPoint"/>
                    </mxGeometry>
                </mxCell>
                <mxCell id="82" value="builds from html" style="edgeLabel;html=1;align=center;verticalAlign=middle;resizable=0;points=[];" vertex="1" connectable="0" parent="81">
                    <mxGeometry x="-0.275" y="1" relative="1" as="geometry">
                        <mxPoint x="19" as="offset"/>
                    </mxGeometry>
                </mxCell>
                <mxCell id="84" value="creates model&lt;br&gt;review" style="endArrow=none;html=1;" edge="1" parent="1">
                    <mxGeometry x="1" y="-20" width="50" height="50" relative="1" as="geometry">
                        <mxPoint x="780" y="1880" as="sourcePoint"/>
                        <mxPoint x="840" y="1880" as="targetPoint"/>
                        <mxPoint as="offset"/>
                    </mxGeometry>
                </mxCell>
                <mxCell id="85" value="" style="endArrow=none;html=1;" edge="1" parent="1">
                    <mxGeometry width="50" height="50" relative="1" as="geometry">
                        <mxPoint x="840" y="1920" as="sourcePoint"/>
                        <mxPoint x="840" y="1880" as="targetPoint"/>
                    </mxGeometry>
                </mxCell>
                <mxCell id="86" value="" style="endArrow=classic;html=1;" edge="1" parent="1">
                    <mxGeometry width="50" height="50" relative="1" as="geometry">
                        <mxPoint x="840" y="1920" as="sourcePoint"/>
                        <mxPoint x="780" y="1920" as="targetPoint"/>
                    </mxGeometry>
                </mxCell>
                <mxCell id="87" value="requests analysis&lt;br&gt;from review" style="endArrow=classic;html=1;" edge="1" parent="1">
                    <mxGeometry width="50" height="50" relative="1" as="geometry">
                        <mxPoint x="780" y="1949" as="sourcePoint"/>
                        <mxPoint x="940" y="1949" as="targetPoint"/>
                    </mxGeometry>
                </mxCell>
                <mxCell id="89" value="returns the analysis &lt;br&gt;score value and label" style="endArrow=classic;html=1;" edge="1" parent="1">
                    <mxGeometry width="50" height="50" relative="1" as="geometry">
                        <mxPoint x="940" y="1990" as="sourcePoint"/>
                        <mxPoint x="780" y="1990" as="targetPoint"/>
                    </mxGeometry>
                </mxCell>
                <mxCell id="91" value="retrieve the review &lt;br&gt;list for given page" style="endArrow=classic;html=1;" edge="1" parent="1">
                    <mxGeometry width="50" height="50" relative="1" as="geometry">
                        <mxPoint x="780" y="2020" as="sourcePoint"/>
                        <mxPoint x="620" y="2020" as="targetPoint"/>
                    </mxGeometry>
                </mxCell>
                <mxCell id="92" value="flat the 5 pages&lt;br&gt;into single list" style="endArrow=none;html=1;" edge="1" parent="1">
                    <mxGeometry x="1" y="-20" width="50" height="50" relative="1" as="geometry">
                        <mxPoint x="620" y="2070" as="sourcePoint"/>
                        <mxPoint x="680" y="2070" as="targetPoint"/>
                        <mxPoint as="offset"/>
                    </mxGeometry>
                </mxCell>
                <mxCell id="93" value="" style="endArrow=none;html=1;" edge="1" parent="1">
                    <mxGeometry width="50" height="50" relative="1" as="geometry">
                        <mxPoint x="680" y="2110" as="sourcePoint"/>
                        <mxPoint x="680" y="2070" as="targetPoint"/>
                    </mxGeometry>
                </mxCell>
                <mxCell id="94" value="" style="endArrow=classic;html=1;" edge="1" parent="1">
                    <mxGeometry width="50" height="50" relative="1" as="geometry">
                        <mxPoint x="680" y="2110" as="sourcePoint"/>
                        <mxPoint x="620" y="2110" as="targetPoint"/>
                    </mxGeometry>
                </mxCell>
                <mxCell id="95" value="sort them by &lt;br&gt;score value" style="endArrow=none;html=1;" edge="1" parent="1">
                    <mxGeometry x="1" y="-20" width="50" height="50" relative="1" as="geometry">
                        <mxPoint x="620" y="2130" as="sourcePoint"/>
                        <mxPoint x="680" y="2130" as="targetPoint"/>
                        <mxPoint as="offset"/>
                    </mxGeometry>
                </mxCell>
                <mxCell id="96" value="" style="endArrow=none;html=1;" edge="1" parent="1">
                    <mxGeometry width="50" height="50" relative="1" as="geometry">
                        <mxPoint x="680" y="2170" as="sourcePoint"/>
                        <mxPoint x="680" y="2130" as="targetPoint"/>
                    </mxGeometry>
                </mxCell>
                <mxCell id="97" value="" style="endArrow=classic;html=1;" edge="1" parent="1">
                    <mxGeometry width="50" height="50" relative="1" as="geometry">
                        <mxPoint x="680" y="2170" as="sourcePoint"/>
                        <mxPoint x="620" y="2170" as="targetPoint"/>
                    </mxGeometry>
                </mxCell>
                <mxCell id="98" value="retrive only the top 3 reviews" style="endArrow=classic;html=1;" edge="1" parent="1">
                    <mxGeometry width="50" height="50" relative="1" as="geometry">
                        <mxPoint x="620" y="2200" as="sourcePoint"/>
                        <mxPoint x="300" y="2200" as="targetPoint"/>
                    </mxGeometry>
                </mxCell>
                <mxCell id="99" value="&lt;font style=&quot;font-size: 19px&quot;&gt;Barsky Scrapper Tests&lt;br&gt;follows the TDD practice over functional tests by specifications driving desired behavior&lt;br&gt;&lt;/font&gt;" style="text;html=1;strokeColor=none;fillColor=none;align=center;verticalAlign=middle;whiteSpace=wrap;rounded=0;dashed=1;" vertex="1" parent="1">
                    <mxGeometry x="130" y="2330" width="910" height="20" as="geometry"/>
                </mxCell>
                <mxCell id="100" value="" style="ellipse;whiteSpace=wrap;html=1;aspect=fixed;strokeColor=#FFFFFF;fillColor=#000000;" vertex="1" parent="1">
                    <mxGeometry x="563" y="3107.5" width="30" height="30" as="geometry"/>
                </mxCell>
                <mxCell id="101" value="" style="ellipse;whiteSpace=wrap;html=1;aspect=fixed;strokeColor=#FFFFFF;fillColor=none;" vertex="1" parent="1">
                    <mxGeometry x="555.5" y="3100" width="45" height="45" as="geometry"/>
                </mxCell>
                <mxCell id="112" style="edgeStyle=orthogonalEdgeStyle;rounded=0;orthogonalLoop=1;jettySize=auto;html=1;" edge="1" parent="1" source="103" target="104">
                    <mxGeometry relative="1" as="geometry"/>
                </mxCell>
                <mxCell id="103" value="" style="ellipse;whiteSpace=wrap;html=1;aspect=fixed;strokeColor=#FFFFFF;" vertex="1" parent="1">
                    <mxGeometry x="555.5" y="2400" width="45" height="45" as="geometry"/>
                </mxCell>
                <mxCell id="107" style="edgeStyle=orthogonalEdgeStyle;rounded=0;orthogonalLoop=1;jettySize=auto;html=1;entryX=0.5;entryY=0;entryDx=0;entryDy=0;" edge="1" parent="1" source="104" target="105">
                    <mxGeometry relative="1" as="geometry"/>
                </mxCell>
                <mxCell id="104" value="test runner" style="shape=process;whiteSpace=wrap;html=1;backgroundOutline=1;strokeColor=#FFFFFF;fillColor=#2a2a2a;" vertex="1" parent="1">
                    <mxGeometry x="518" y="2520" width="120" height="60" as="geometry"/>
                </mxCell>
                <mxCell id="108" style="edgeStyle=orthogonalEdgeStyle;rounded=0;orthogonalLoop=1;jettySize=auto;html=1;entryX=0.5;entryY=0;entryDx=0;entryDy=0;" edge="1" parent="1" source="105" target="106">
                    <mxGeometry relative="1" as="geometry"/>
                </mxCell>
                <mxCell id="105" value="TestCase" style="rounded=1;whiteSpace=wrap;html=1;strokeColor=#FFFFFF;fillColor=#2a2a2a;" vertex="1" parent="1">
                    <mxGeometry x="390" y="2613" width="120" height="60" as="geometry"/>
                </mxCell>
                <mxCell id="118" style="edgeStyle=orthogonalEdgeStyle;rounded=0;orthogonalLoop=1;jettySize=auto;html=1;entryX=0;entryY=0.5;entryDx=0;entryDy=0;" edge="1" parent="1" source="106" target="117">
                    <mxGeometry relative="1" as="geometry"/>
                </mxCell>
                <mxCell id="131" style="edgeStyle=orthogonalEdgeStyle;rounded=0;orthogonalLoop=1;jettySize=auto;html=1;entryX=1;entryY=0.5;entryDx=0;entryDy=0;exitX=0.5;exitY=1;exitDx=0;exitDy=0;" edge="1" parent="1" source="106" target="130">
                    <mxGeometry relative="1" as="geometry"/>
                </mxCell>
                <mxCell id="106" value="ExecutorTest" style="rounded=0;whiteSpace=wrap;html=1;strokeColor=#FFFFFF;fillColor=#2a2a2a;" vertex="1" parent="1">
                    <mxGeometry x="518" y="2733" width="120" height="60" as="geometry"/>
                </mxCell>
                <mxCell id="116" style="edgeStyle=orthogonalEdgeStyle;rounded=0;orthogonalLoop=1;jettySize=auto;html=1;entryX=0.5;entryY=0;entryDx=0;entryDy=0;" edge="1" parent="1" source="109" target="106">
                    <mxGeometry relative="1" as="geometry"/>
                </mxCell>
                <mxCell id="109" value="BehaviorSpec" style="rounded=0;whiteSpace=wrap;html=1;strokeColor=#FFFFFF;fillColor=#2a2a2a;" vertex="1" parent="1">
                    <mxGeometry x="640" y="2613" width="120" height="60" as="geometry"/>
                </mxCell>
                <mxCell id="120" style="edgeStyle=orthogonalEdgeStyle;rounded=0;orthogonalLoop=1;jettySize=auto;html=1;entryX=0;entryY=0.5;entryDx=0;entryDy=0;" edge="1" parent="1" source="117" target="119">
                    <mxGeometry relative="1" as="geometry">
                        <Array as="points">
                            <mxPoint x="720" y="2833"/>
                        </Array>
                    </mxGeometry>
                </mxCell>
                <mxCell id="127" style="edgeStyle=orthogonalEdgeStyle;rounded=0;orthogonalLoop=1;jettySize=auto;html=1;entryX=0;entryY=0.5;entryDx=0;entryDy=0;" edge="1" parent="1" source="117" target="126">
                    <mxGeometry relative="1" as="geometry">
                        <Array as="points">
                            <mxPoint x="720" y="2912"/>
                        </Array>
                    </mxGeometry>
                </mxCell>
                <mxCell id="117" value="setUp" style="shape=step;perimeter=stepPerimeter;whiteSpace=wrap;html=1;fixedSize=1;strokeColor=#FFFFFF;fillColor=#2a2a2a;" vertex="1" parent="1">
                    <mxGeometry x="670" y="2723" width="120" height="80" as="geometry"/>
                </mxCell>
                <mxCell id="119" value="Fixtures" style="rounded=0;whiteSpace=wrap;html=1;strokeColor=#FFFFFF;fillColor=#2a2a2a;" vertex="1" parent="1">
                    <mxGeometry x="800" y="2803" width="120" height="60" as="geometry"/>
                </mxCell>
                <mxCell id="133" style="edgeStyle=orthogonalEdgeStyle;rounded=0;orthogonalLoop=1;jettySize=auto;html=1;entryX=0.5;entryY=0;entryDx=0;entryDy=0;" edge="1" parent="1" source="124" target="101">
                    <mxGeometry relative="1" as="geometry">
                        <Array as="points">
                            <mxPoint x="740" y="3080"/>
                            <mxPoint x="578" y="3080"/>
                        </Array>
                    </mxGeometry>
                </mxCell>
                <mxCell id="124" value="tearDown" style="shape=step;perimeter=stepPerimeter;whiteSpace=wrap;html=1;fixedSize=1;strokeColor=#FFFFFF;fillColor=#2a2a2a;" vertex="1" parent="1">
                    <mxGeometry x="680" y="2970" width="120" height="80" as="geometry"/>
                </mxCell>
                <mxCell id="126" value="Mixins" style="rounded=0;whiteSpace=wrap;html=1;strokeColor=#FFFFFF;fillColor=#2a2a2a;" vertex="1" parent="1">
                    <mxGeometry x="800" y="2882" width="120" height="60" as="geometry"/>
                </mxCell>
                <mxCell id="132" style="edgeStyle=orthogonalEdgeStyle;rounded=0;orthogonalLoop=1;jettySize=auto;html=1;entryX=0;entryY=0.5;entryDx=0;entryDy=0;" edge="1" parent="1" source="130" target="124">
                    <mxGeometry relative="1" as="geometry">
                        <Array as="points">
                            <mxPoint x="420" y="3010"/>
                        </Array>
                    </mxGeometry>
                </mxCell>
                <mxCell id="130" value="Trigger methods&lt;br&gt;test_..." style="rounded=0;whiteSpace=wrap;html=1;strokeColor=#FFFFFF;fillColor=#2a2a2a;" vertex="1" parent="1">
                    <mxGeometry x="360" y="2840" width="120" height="60" as="geometry"/>
                </mxCell>
                <mxCell id="135" value="Bucket" style="shape=cylinder3;whiteSpace=wrap;html=1;boundedLbl=1;backgroundOutline=1;size=15;" vertex="1" parent="1">
                    <mxGeometry x="502.5" y="390" width="45" height="60" as="geometry"/>
                </mxCell>
                <mxCell id="137" value="&lt;font style=&quot;font-size: 8px&quot;&gt;tasking&lt;/font&gt;" style="shape=process;whiteSpace=wrap;html=1;backgroundOutline=1;strokeColor=#FFFFFF;fillColor=#2a2a2a;" vertex="1" parent="1">
                    <mxGeometry x="285" y="308" width="70" height="16" as="geometry"/>
                </mxCell>
            </root>
        </mxGraphModel>
    </diagram>
</mxfile>